<?xml version="1.0" standalone="no"?>
<!DOCTYPE svg PUBLIC "-//W3C//DTD SVG 20010904//EN"
        "http://www.w3.org/TR/2001/REC-SVG-20010904/DTD/svg10.dtd">
<svg version="1.0" xmlns="http://www.w3.org/2000/svg"
     width="1280.000000" height="1275.000000" viewBox="0 0 950.000000 950.000000"
     preserveAspectRatio="xMidYMid meet">
    <!-- Uncomment this to view the logo with CSU's brand green as background
      <rect width="100%" height="100%" fill="#1E4D2B" />
     -->
    <g transform="translate(-200, 1100) scale(0.100000,-0.100000)"
       fill="#FFFFFF" stroke="none">
        <!-- Uncomment the following to introduce a border.
        <path d="M6055 12644 c-574 -37 -1126 -142 -1640 -312 -509 -168 -1083 -450
        -1530 -752 -587 -397 -1110 -895 -1533 -1459 -114 -152 -130 -178 -116 -190
        15 -14 1174 -681 1184 -681 5 0 45 48 91 107 327 424 724 793 1169 1088 679
        451 1421 716 2245 801 236 25 714 25 950 0 816 -84 1557 -347 2230 -790 459
        -302 873 -689 1203 -1123 35 -46 67 -83 72 -83 9 0 1169 667 1184 681 13 12
        -1 35 -116 189 -423 565 -945 1062 -1533 1460 -447 302 -1021 584 -1530 752
        -443 147 -913 245 -1405 294 -157 15 -775 27 -925 18z"/>
        <path d="M492 8543 c-197 -541 -312 -1050 -368 -1638 -25 -254 -25 -849 0
        -1100 132 -1354 630 -2534 1499 -3553 146 -171 549 -568 722 -713 894 -743
        1907 -1209 3030 -1394 110 -18 226 -35 258 -39 l57 -6 -2 697 -3 698 -50 8
        c-1043 172 -1975 647 -2710 1382 -752 752 -1242 1728 -1389 2765 -39 273 -49
        424 -48 715 0 531 73 1002 232 1496 21 68 36 127 32 130 -15 13 -1194 689
        -1202 689 -4 0 -30 -62 -58 -137z"/>
        <path d="M11640 8334 c-327 -190 -594 -350 -594 -357 1 -6 25 -88 54 -182 434
        -1423 206 -2949 -625 -4185 -167 -248 -378 -503 -600 -725 -734 -735 -1667
        -1210 -2710 -1382 l-50 -8 -3 -698 -2 -697 57 6 c119 13 464 73 621 109 852
        190 1670 567 2381 1098 269 201 480 387 741 653 849 867 1427 1958 1665 3144
        189 944 162 1905 -79 2834 -74 286 -228 737 -250 735 -6 0 -279 -156 -606
        -345z"/>
        -->
        <path d="M6080 10539 c-227 -17 -527 -68 -740 -125 -152 -40 -320 -94 -320
-102 0 -4 87 -8 193 -9 250 -3 557 -32 734 -69 32 -6 38 -1 183 145 82 84 150
156 150 161 0 11 -35 11 -200 -1z"/>
        <path d="M6582 10433 c-49 -60 -127 -147 -172 -195 -51 -55 -77 -89 -68 -92
408 -123 711 -247 1013 -415 157 -88 467 -293 588 -390 48 -39 92 -71 97 -71
12 0 181 218 287 370 117 167 205 310 200 324 -3 7 -56 40 -118 74 -411 222
-858 376 -1314 452 -158 26 -352 50 -405 50 -10 0 -55 -45 -108 -107z"/>
        <path d="M4310 9992 c-319 -184 -619 -412 -845 -642 l-100 -102 200 6 c263 8
261 7 309 81 137 209 312 434 480 618 59 64 104 117 99 117 -4 0 -69 -35 -143
-78z"/>
        <path d="M4980 10006 c0 -9 142 -332 150 -339 9 -10 88 29 217 105 104 61 289
183 297 197 7 11 -42 18 -204 31 -123 9 -460 14 -460 6z"/>
        <path d="M5955 9824 c-180 -140 -378 -267 -637 -408 l-67 -36 29 -68 c91 -215
710 -1635 713 -1639 3 -2 68 27 144 66 452 226 891 528 1298 891 127 113 405
393 405 407 0 14 -275 218 -406 301 -384 244 -769 413 -1209 532 -82 22 -152
40 -155 40 -3 0 -55 -38 -115 -86z"/>
        <path d="M4608 9792 c-143 -151 -376 -437 -365 -449 8 -8 262 62 406 112 172
59 201 71 201 86 0 19 -142 339 -150 339 -4 0 -45 -40 -92 -88z"/>
        <path d="M8687 9642 c-117 -179 -236 -344 -344 -479 -40 -51 -73 -96 -73 -100
0 -3 60 -68 133 -142 399 -408 717 -901 935 -1451 27 -69 55 -142 62 -164 l12
-38 50 48 c159 155 559 633 697 831 l22 32 -36 70 c-118 235 -298 513 -473
733 -124 155 -370 410 -527 545 -93 81 -303 244 -342 267 -7 4 -49 -50 -116
-152z"/>
        <path d="M4902 9230 c-145 -65 -516 -171 -751 -214 -113 -21 -138 -28 -153
-48 -30 -39 -194 -377 -246 -508 -110 -275 -197 -582 -247 -867 -29 -171 -61
-474 -51 -498 6 -16 19 -17 144 -11 737 35 1320 154 1972 401 69 26 130 52
136 59 9 8 -81 224 -355 856 -296 680 -371 845 -387 847 -10 1 -38 -7 -62 -17z"/>
        <path d="M3063 8900 c-72 -90 -245 -355 -324 -495 -141 -250 -272 -559 -358
-842 -48 -160 -96 -362 -87 -370 19 -19 517 -85 743 -99 l111 -7 6 44 c3 24
10 105 16 179 41 483 193 1036 411 1489 38 79 68 145 67 146 -2 2 -124 5 -272
7 l-269 4 -44 -56z"/>
        <path d="M7920 8688 c-466 -484 -1030 -901 -1633 -1208 -92 -47 -167 -89 -167
-95 0 -13 800 -1857 811 -1870 11 -11 291 126 539 263 512 282 1010 632 1450
1017 180 157 250 226 250 245 0 10 -18 71 -41 136 -158 458 -394 888 -697
1265 -113 142 -347 390 -366 388 -6 -1 -72 -64 -146 -141z"/>
        <path d="M10194 7707 c-149 -189 -327 -395 -521 -601 l-159 -170 33 -145 c76
-341 108 -684 100 -1056 -8 -327 -37 -575 -103 -873 -14 -63 -24 -116 -21
-118 5 -6 300 218 461 350 135 110 366 311 474 412 l64 59 19 113 c37 223 52
409 52 672 1 347 -26 600 -98 920 -52 232 -158 570 -181 576 -5 2 -59 -61
-120 -139z"/>
        <path d="M5732 7229 c-329 -135 -762 -261 -1149 -334 -305 -58 -725 -105 -943
-105 -47 0 -109 -3 -137 -6 l-53 -7 0 -79 c0 -89 23 -326 46 -466 77 -480 239
-947 476 -1374 69 -125 42 -115 256 -93 694 71 1349 218 1987 446 270 97 430
163 433 180 3 18 -802 1872 -814 1875 -5 1 -51 -16 -102 -37z"/>
        <path d="M2235 6868 c-10 -47 -24 -229 -31 -398 -13 -354 33 -767 127 -1145
32 -127 136 -447 166 -511 l18 -39 115 -12 c255 -25 627 -39 947 -35 l122 2
-89 182 c-276 560 -417 1102 -458 1763 l-7 110 -199 17 c-211 17 -471 50 -596
74 -99 19 -109 18 -115 -8z"/>
        <path d="M9123 6577 c-569 -499 -1236 -944 -1886 -1257 -97 -47 -176 -91 -177
-97 0 -15 648 -1513 660 -1527 17 -17 545 248 887 445 87 50 239 142 337 204
204 128 179 94 246 326 73 250 127 542 151 818 17 196 6 675 -19 861 -26 187
-52 329 -62 335 -5 3 -66 -46 -137 -108z"/>
        <path d="M6605 5040 c-514 -211 -1128 -384 -1735 -489 -184 -32 -551 -81 -607
-81 -20 0 -33 -5 -33 -13 0 -15 134 -189 245 -317 124 -142 373 -381 525 -504
237 -191 529 -374 812 -511 l138 -67 102 27 c163 43 419 119 603 180 344 115
778 284 783 306 1 8 -145 354 -326 769 -269 621 -331 755 -347 756 -11 1 -83
-24 -160 -56z"/>
        <path d="M10244 4922 c-232 -193 -629 -494 -815 -616 l-56 -37 -63 -152 c-157
-380 -375 -755 -624 -1072 -83 -106 -239 -285 -291 -335 -72 -69 -63 -76 30
-26 341 184 641 411 941 711 208 208 350 379 502 604 165 243 291 476 403 742
48 115 111 289 105 289 -2 0 -61 -48 -132 -108z"/>
        <path d="M2664 4444 c15 -38 151 -273 222 -382 318 -488 792 -954 1265 -1246
l76 -47 159 16 c346 34 956 125 1077 161 26 8 16 17 -84 73 -546 311 -1067
789 -1425 1309 -37 53 -69 99 -71 101 -2 3 -173 4 -381 2 -337 -2 -593 7 -781
26 -60 6 -64 5 -57 -13z"/>
        <path d="M8705 3854 c-110 -63 -347 -188 -527 -277 -180 -89 -327 -167 -327
-174 -1 -18 240 -573 249 -573 8 0 164 167 257 276 127 150 272 353 389 546
76 126 178 318 167 318 -4 -1 -98 -53 -208 -116z"/>
        <path d="M7454 3245 c-192 -82 -450 -177 -728 -270 -153 -51 -274 -95 -269
-98 17 -11 237 -66 360 -91 160 -33 384 -63 558 -76 164 -12 432 -13 438 -2 3
4 -35 99 -84 212 -142 328 -161 370 -168 369 -3 0 -52 -20 -107 -44z"/>
        <path d="M5835 2724 c-157 -43 -691 -143 -960 -179 -66 -9 -129 -20 -140 -24
-15 -6 16 -22 135 -68 882 -345 1834 -384 2740 -111 91 27 169 53 174 59 6 5
-56 9 -165 9 -521 0 -1080 105 -1582 296 -96 37 -126 40 -202 18z"/>
    </g>
</svg>
